<svg width="375" height="60" viewBox="0 0 375 60" fill="none" xmlns="http://www.w3.org/2000/svg">
<rect width="375" height="60" fill="white"/>
<path fill-rule="evenodd" clip-rule="evenodd" d="M67.4373 16.4544L59.6423 23.4308L59.6427 33.5204H63.8628V31.3204H65.0628V33.8704C65.0628 34.3398 64.6822 34.7204 64.2128 34.7204H59.2927C58.8233 34.7204 58.4427 34.3399 58.4427 33.8704L58.4423 23.2743C58.4423 23.0235 58.5536 22.7894 58.7372 22.6305L66.8813 15.3416L66.888 15.3359C67.2082 15.0658 67.6844 15.0661 68.0031 15.3507M67.4373 16.4544L75.2427 23.4263V33.5204H71.021V31.3204H69.821V33.8704C69.821 34.3398 70.2016 34.7204 70.671 34.7204H75.5927C76.0622 34.7204 76.4427 34.3398 76.4427 33.8704V23.2696C76.4427 23.0275 76.3395 22.7969 76.1589 22.6356L68.0031 15.3507M63.8628 29.358C63.8628 27.3813 65.4652 25.7789 67.4419 25.7789C69.4186 25.7789 71.021 27.3813 71.021 29.358V29.7155H69.821V29.358C69.821 28.044 68.7559 26.9789 67.4419 26.9789C66.128 26.9789 65.0628 28.044 65.0628 29.358V29.7155H63.8628V29.358Z" fill="black"/>
<path d="M57.291 41.3037C57.2837 41.3551 57.2727 41.4284 57.258 41.5237C57.2507 41.6117 57.2433 41.7071 57.236 41.8097C57.2287 41.9124 57.225 42.0041 57.225 42.0847C57.225 42.2754 57.225 42.4991 57.225 42.7557C57.225 43.0051 57.225 43.2507 57.225 43.4927C57.225 43.7347 57.225 43.9474 57.225 44.1307C57.225 44.2774 57.225 44.4901 57.225 44.7687C57.225 45.0474 57.225 45.3627 57.225 45.7147C57.225 46.0594 57.225 46.4187 57.225 46.7927C57.225 47.1667 57.225 47.5261 57.225 47.8707C57.225 48.2081 57.225 48.5124 57.225 48.7837C57.225 49.0477 57.225 49.2457 57.225 49.3777C57.225 49.6637 57.1517 49.8801 57.005 50.0267C56.8583 50.1734 56.6163 50.2467 56.279 50.2467C56.125 50.2467 55.9527 50.2431 55.762 50.2357C55.5787 50.2284 55.3953 50.2174 55.212 50.2027C55.0287 50.1954 54.8637 50.1844 54.717 50.1697L54.64 49.3007C54.882 49.3447 55.1167 49.3777 55.344 49.3997C55.5787 49.4144 55.7657 49.4217 55.905 49.4217C56.059 49.4217 56.169 49.3887 56.235 49.3227C56.301 49.2567 56.334 49.1504 56.334 49.0037C56.334 48.9011 56.334 48.7251 56.334 48.4757C56.334 48.2264 56.334 47.9331 56.334 47.5957C56.334 47.2584 56.334 46.9064 56.334 46.5397C56.334 46.1731 56.334 45.8247 56.334 45.4947C56.334 45.1574 56.334 44.8677 56.334 44.6257C56.334 44.3837 56.334 44.2187 56.334 44.1307C56.334 43.9987 56.334 43.8081 56.334 43.5587C56.334 43.3094 56.334 43.0491 56.334 42.7777C56.334 42.5064 56.334 42.2754 56.334 42.0847C56.334 41.9674 56.3267 41.8281 56.312 41.6667C56.2973 41.5054 56.279 41.3844 56.257 41.3037H57.291ZM52.341 43.1517C52.5023 43.1737 52.6527 43.1921 52.792 43.2067C52.9387 43.2141 53.1 43.2177 53.276 43.2177C53.364 43.2177 53.5437 43.2177 53.815 43.2177C54.0863 43.2177 54.4127 43.2177 54.794 43.2177C55.1827 43.2177 55.597 43.2177 56.037 43.2177C56.477 43.2177 56.917 43.2177 57.357 43.2177C57.8043 43.2177 58.2187 43.2177 58.6 43.2177C58.9887 43.2177 59.315 43.2177 59.579 43.2177C59.8503 43.2177 60.0337 43.2177 60.129 43.2177C60.261 43.2177 60.4077 43.2141 60.569 43.2067C60.7377 43.1921 60.8917 43.1774 61.031 43.1627V44.0757C60.8843 44.0611 60.734 44.0537 60.58 44.0537C60.426 44.0464 60.2793 44.0427 60.14 44.0427C60.0447 44.0427 59.8613 44.0427 59.59 44.0427C59.326 44.0427 58.9997 44.0427 58.611 44.0427C58.2297 44.0427 57.819 44.0427 57.379 44.0427C56.939 44.0427 56.499 44.0427 56.059 44.0427C55.619 44.0427 55.2047 44.0427 54.816 44.0427C54.4347 44.0427 54.1083 44.0427 53.837 44.0427C53.5657 44.0427 53.3823 44.0427 53.287 44.0427C53.1183 44.0427 52.957 44.0464 52.803 44.0537C52.649 44.0611 52.495 44.0721 52.341 44.0867V43.1517ZM54.871 45.7477C54.7537 45.9824 54.607 46.2391 54.431 46.5177C54.2623 46.7964 54.0753 47.0751 53.87 47.3537C53.672 47.6324 53.474 47.8964 53.276 48.1457C53.0853 48.3877 52.913 48.5931 52.759 48.7617L52 48.2447C52.1833 48.0761 52.374 47.8744 52.572 47.6397C52.7773 47.4051 52.9753 47.1557 53.166 46.8917C53.3567 46.6277 53.5327 46.3637 53.694 46.0997C53.8553 45.8357 53.991 45.5937 54.101 45.3737L54.871 45.7477ZM59.469 45.3737C59.6157 45.5497 59.7733 45.7624 59.942 46.0117C60.118 46.2537 60.294 46.5104 60.47 46.7817C60.6533 47.0531 60.822 47.3171 60.976 47.5737C61.13 47.8304 61.262 48.0577 61.372 48.2557L60.558 48.7067C60.4553 48.4867 60.327 48.2447 60.173 47.9807C60.0263 47.7167 59.8687 47.4491 59.7 47.1777C59.5313 46.9064 59.359 46.6497 59.183 46.4077C59.0143 46.1657 58.8603 45.9567 58.721 45.7807L59.469 45.3737Z" fill="black"/>
<path d="M63.231 45.1647C63.341 45.1721 63.4767 45.1831 63.638 45.1977C63.7993 45.2051 63.9753 45.2124 64.166 45.2197C64.364 45.2197 64.562 45.2197 64.76 45.2197C64.8773 45.2197 65.057 45.2197 65.299 45.2197C65.5483 45.2197 65.838 45.2197 66.168 45.2197C66.498 45.2197 66.8463 45.2197 67.213 45.2197C67.587 45.2197 67.9573 45.2197 68.324 45.2197C68.698 45.2197 69.05 45.2197 69.38 45.2197C69.7173 45.2197 70.007 45.2197 70.249 45.2197C70.491 45.2197 70.6707 45.2197 70.788 45.2197C71.0667 45.2197 71.305 45.2124 71.503 45.1977C71.701 45.1831 71.8587 45.1721 71.976 45.1647V46.2427C71.866 46.2354 71.701 46.2244 71.481 46.2097C71.2683 46.1951 71.041 46.1877 70.799 46.1877C70.6817 46.1877 70.4983 46.1877 70.249 46.1877C69.9997 46.1877 69.71 46.1877 69.38 46.1877C69.0573 46.1877 68.709 46.1877 68.335 46.1877C67.961 46.1877 67.587 46.1877 67.213 46.1877C66.8463 46.1877 66.498 46.1877 66.168 46.1877C65.8453 46.1877 65.5593 46.1877 65.31 46.1877C65.0607 46.1877 64.8773 46.1877 64.76 46.1877C64.4593 46.1877 64.1733 46.1951 63.902 46.2097C63.6307 46.2171 63.407 46.2281 63.231 46.2427V45.1647Z" fill="black"/>
<path d="M78.518 41.7217C78.4667 41.8611 78.408 42.0077 78.342 42.1617C78.2833 42.3157 78.2173 42.5101 78.144 42.7447C78.078 42.9281 77.9937 43.1847 77.891 43.5147C77.7883 43.8447 77.671 44.2114 77.539 44.6147C77.4143 45.0107 77.2787 45.4214 77.132 45.8467C76.9927 46.2721 76.8533 46.6864 76.714 47.0897C76.5747 47.4931 76.4463 47.8561 76.329 48.1787C76.219 48.4941 76.1237 48.7471 76.043 48.9377L75.042 48.9707C75.1373 48.7507 75.2473 48.4721 75.372 48.1347C75.4967 47.7974 75.6323 47.4197 75.779 47.0017C75.9257 46.5837 76.0687 46.1584 76.208 45.7257C76.3547 45.2857 76.494 44.8604 76.626 44.4497C76.758 44.0391 76.8717 43.6687 76.967 43.3387C77.0697 43.0087 77.1503 42.7484 77.209 42.5577C77.275 42.3011 77.3227 42.0994 77.352 41.9527C77.3813 41.7987 77.4033 41.6484 77.418 41.5017L78.518 41.7217ZM80.608 45.4067C80.806 45.6927 81.0187 46.0301 81.246 46.4187C81.4807 46.8074 81.7117 47.2181 81.939 47.6507C82.1737 48.0761 82.3863 48.4831 82.577 48.8717C82.775 49.2604 82.9327 49.5977 83.05 49.8837L82.126 50.3017C82.016 50.0011 81.8693 49.6491 81.686 49.2457C81.5027 48.8351 81.301 48.4134 81.081 47.9807C80.8683 47.5481 80.6483 47.1374 80.421 46.7487C80.1937 46.3601 79.981 46.0374 79.783 45.7807L80.608 45.4067ZM74.613 48.7067C74.877 48.6921 75.196 48.6701 75.57 48.6407C75.9513 48.6041 76.362 48.5674 76.802 48.5307C77.242 48.4867 77.6893 48.4391 78.144 48.3877C78.606 48.3364 79.0533 48.2887 79.486 48.2447C79.9187 48.1934 80.3147 48.1457 80.674 48.1017C81.0333 48.0504 81.3303 48.0101 81.565 47.9807L81.807 48.8277C81.5577 48.8644 81.2423 48.9047 80.861 48.9487C80.4797 48.9927 80.0653 49.0404 79.618 49.0917C79.178 49.1357 78.7197 49.1871 78.243 49.2457C77.7737 49.2971 77.3153 49.3484 76.868 49.3997C76.4207 49.4511 76.0063 49.4951 75.625 49.5317C75.2437 49.5684 74.9247 49.5977 74.668 49.6197C74.5287 49.6344 74.382 49.6527 74.228 49.6747C74.074 49.6967 73.9163 49.7187 73.755 49.7407L73.59 48.7177C73.7587 48.7251 73.931 48.7287 74.107 48.7287C74.2903 48.7214 74.459 48.7141 74.613 48.7067Z" fill="black"/>
<path fill-rule="evenodd" clip-rule="evenodd" d="M184.437 15.9544L176.642 22.9308L176.643 33.0204H180.863V30.8204H182.063V33.3704C182.063 33.8398 181.682 34.2204 181.213 34.2204H176.293C175.823 34.2204 175.443 33.8399 175.443 33.3704L175.442 22.7743C175.442 22.5235 175.554 22.2894 175.737 22.1305L183.881 14.8416L183.888 14.8359C184.208 14.5658 184.684 14.5661 185.003 14.8507M184.437 15.9544L192.243 22.9263V33.0204H188.021V30.8204H186.821V33.3704C186.821 33.8398 187.202 34.2204 187.671 34.2204H192.593C193.062 34.2204 193.443 33.8398 193.443 33.3704V22.7696C193.443 22.5275 193.339 22.2969 193.159 22.1356L185.003 14.8507M180.863 28.858C180.863 26.8813 182.465 25.2789 184.442 25.2789C186.419 25.2789 188.021 26.8813 188.021 28.858V29.2155H186.821V28.858C186.821 27.544 185.756 26.4789 184.442 26.4789C183.128 26.4789 182.063 27.544 182.063 28.858V29.2155H180.863V28.858Z" fill="#0650A0"/>
<path d="M165.96 41.4197C165.901 41.5151 165.835 41.6434 165.762 41.8047C165.696 41.9661 165.641 42.1054 165.597 42.2227C165.465 42.5894 165.3 42.9854 165.102 43.4107C164.911 43.8287 164.691 44.2504 164.442 44.6757C164.2 45.1011 163.929 45.5081 163.628 45.8967C163.276 46.3441 162.876 46.7951 162.429 47.2497C161.989 47.7044 161.49 48.1481 160.933 48.5807C160.383 49.0061 159.76 49.4021 159.063 49.7687L158.304 49.0757C159.331 48.5917 160.211 48.0307 160.944 47.3927C161.685 46.7474 162.334 46.0654 162.891 45.3467C163.353 44.7674 163.727 44.1807 164.013 43.5867C164.299 42.9927 164.537 42.4244 164.728 41.8817C164.765 41.7717 164.805 41.6397 164.849 41.4857C164.893 41.3244 164.926 41.1851 164.948 41.0677L165.96 41.4197ZM160.141 42.7067C160.412 42.8827 160.706 43.0807 161.021 43.3007C161.336 43.5134 161.652 43.7334 161.967 43.9607C162.282 44.1807 162.579 44.3971 162.858 44.6097C163.144 44.8224 163.39 45.0131 163.595 45.1817C164.152 45.6291 164.695 46.0911 165.223 46.5677C165.751 47.0371 166.231 47.5101 166.664 47.9867L165.971 48.7457C165.509 48.2104 165.032 47.7191 164.541 47.2717C164.057 46.8171 163.54 46.3551 162.99 45.8857C162.792 45.7171 162.561 45.5301 162.297 45.3247C162.033 45.1194 161.747 44.9031 161.439 44.6757C161.138 44.4484 160.827 44.2284 160.504 44.0157C160.181 43.7957 159.87 43.5904 159.569 43.3997L160.141 42.7067Z" fill="#0650A0"/>
<path d="M173.363 43.0917C173.414 43.2017 173.48 43.3667 173.561 43.5867C173.642 43.7994 173.726 44.0267 173.814 44.2687C173.909 44.5107 173.994 44.7417 174.067 44.9617C174.14 45.1744 174.195 45.3431 174.232 45.4677L173.418 45.7537C173.389 45.6291 173.337 45.4604 173.264 45.2477C173.198 45.0351 173.121 44.8077 173.033 44.5657C172.945 44.3164 172.857 44.0854 172.769 43.8727C172.681 43.6601 172.611 43.4914 172.56 43.3667L173.363 43.0917ZM177.345 43.7077C177.308 43.8177 177.275 43.9204 177.246 44.0157C177.224 44.1037 177.202 44.1844 177.18 44.2577C177.033 44.8591 176.835 45.4494 176.586 46.0287C176.337 46.6007 176.014 47.1361 175.618 47.6347C175.112 48.2801 174.54 48.8191 173.902 49.2517C173.271 49.6844 172.648 50.0181 172.032 50.2527L171.306 49.5157C171.731 49.3837 172.16 49.2077 172.593 48.9877C173.033 48.7677 173.447 48.5037 173.836 48.1957C174.232 47.8877 174.58 47.5467 174.881 47.1727C175.145 46.8501 175.38 46.4871 175.585 46.0837C175.798 45.6804 175.974 45.2514 176.113 44.7967C176.252 44.3421 176.348 43.8801 176.399 43.4107L177.345 43.7077ZM170.811 43.6417C170.87 43.7664 170.943 43.9351 171.031 44.1477C171.119 44.3604 171.211 44.5951 171.306 44.8517C171.409 45.1011 171.504 45.3431 171.592 45.5777C171.687 45.8051 171.761 45.9884 171.812 46.1277L170.976 46.4357C170.932 46.2964 170.866 46.1094 170.778 45.8747C170.697 45.6327 170.606 45.3834 170.503 45.1267C170.4 44.8701 170.301 44.6354 170.206 44.4227C170.118 44.2101 170.048 44.0561 169.997 43.9607L170.811 43.6417Z" fill="#0650A0"/>
<path d="M182.416 48.0087C182.416 47.8474 182.416 47.6127 182.416 47.3047C182.416 46.9894 182.416 46.6374 182.416 46.2487C182.416 45.8601 182.416 45.4567 182.416 45.0387C182.416 44.6207 182.416 44.2137 182.416 43.8177C182.416 43.4144 182.416 43.0514 182.416 42.7287C182.416 42.3987 182.416 42.1347 182.416 41.9367C182.416 41.8267 182.412 41.7167 182.405 41.6067C182.405 41.4894 182.398 41.3757 182.383 41.2657C182.376 41.1484 182.361 41.0347 182.339 40.9247H183.384C183.355 41.0861 183.333 41.2547 183.318 41.4307C183.311 41.6067 183.307 41.7754 183.307 41.9367C183.307 42.1274 183.307 42.3804 183.307 42.6957C183.307 43.0037 183.307 43.3484 183.307 43.7297C183.307 44.1037 183.307 44.4887 183.307 44.8847C183.307 45.2807 183.307 45.6657 183.307 46.0397C183.307 46.4137 183.307 46.7511 183.307 47.0517C183.307 47.3524 183.307 47.5944 183.307 47.7777C183.307 48.0271 183.347 48.2251 183.428 48.3717C183.516 48.5184 183.674 48.6247 183.901 48.6907C184.128 48.7494 184.462 48.7787 184.902 48.7787C185.327 48.7787 185.731 48.7677 186.112 48.7457C186.493 48.7237 186.867 48.6871 187.234 48.6357C187.601 48.5844 187.967 48.5257 188.334 48.4597L188.29 49.4057C187.967 49.4497 187.626 49.4901 187.267 49.5267C186.908 49.5634 186.526 49.5891 186.123 49.6037C185.727 49.6184 185.298 49.6257 184.836 49.6257C184.33 49.6257 183.916 49.5927 183.593 49.5267C183.27 49.4607 183.025 49.3617 182.856 49.2297C182.687 49.0904 182.57 48.9217 182.504 48.7237C182.445 48.5184 182.416 48.2801 182.416 48.0087ZM188.796 43.1027C188.759 43.1541 188.715 43.2237 188.664 43.3117C188.613 43.3924 188.569 43.4694 188.532 43.5427C188.4 43.7701 188.25 44.0231 188.081 44.3017C187.92 44.5731 187.74 44.8554 187.542 45.1487C187.344 45.4347 187.135 45.7171 186.915 45.9957C186.702 46.2671 186.49 46.5164 186.277 46.7437L185.507 46.2817C185.786 46.0324 186.053 45.7464 186.31 45.4237C186.567 45.0937 186.794 44.7747 186.992 44.4667C187.197 44.1514 187.355 43.8837 187.465 43.6637C187.421 43.6711 187.271 43.7041 187.014 43.7627C186.765 43.8141 186.446 43.8801 186.057 43.9607C185.668 44.0341 185.236 44.1184 184.759 44.2137C184.282 44.3091 183.798 44.4081 183.307 44.5107C182.816 44.6061 182.343 44.7014 181.888 44.7967C181.441 44.8847 181.041 44.9654 180.689 45.0387C180.337 45.1121 180.066 45.1671 179.875 45.2037L179.71 44.2907C179.908 44.2614 180.183 44.2211 180.535 44.1697C180.887 44.1111 181.283 44.0414 181.723 43.9607C182.17 43.8727 182.636 43.7811 183.12 43.6857C183.611 43.5904 184.092 43.4987 184.561 43.4107C185.038 43.3154 185.481 43.2274 185.892 43.1467C186.303 43.0587 186.655 42.9854 186.948 42.9267C187.241 42.8607 187.447 42.8167 187.564 42.7947C187.681 42.7654 187.791 42.7361 187.894 42.7067C188.004 42.6701 188.088 42.6334 188.147 42.5967L188.796 43.1027Z" fill="#0650A0"/>
<path d="M191.172 44.6647C191.282 44.6721 191.418 44.6831 191.579 44.6977C191.74 44.7051 191.916 44.7124 192.107 44.7197C192.305 44.7197 192.503 44.7197 192.701 44.7197C192.818 44.7197 192.998 44.7197 193.24 44.7197C193.489 44.7197 193.779 44.7197 194.109 44.7197C194.439 44.7197 194.787 44.7197 195.154 44.7197C195.528 44.7197 195.898 44.7197 196.265 44.7197C196.639 44.7197 196.991 44.7197 197.321 44.7197C197.658 44.7197 197.948 44.7197 198.19 44.7197C198.432 44.7197 198.612 44.7197 198.729 44.7197C199.008 44.7197 199.246 44.7124 199.444 44.6977C199.642 44.6831 199.8 44.6721 199.917 44.6647V45.7427C199.807 45.7354 199.642 45.7244 199.422 45.7097C199.209 45.6951 198.982 45.6877 198.74 45.6877C198.623 45.6877 198.439 45.6877 198.19 45.6877C197.941 45.6877 197.651 45.6877 197.321 45.6877C196.998 45.6877 196.65 45.6877 196.276 45.6877C195.902 45.6877 195.528 45.6877 195.154 45.6877C194.787 45.6877 194.439 45.6877 194.109 45.6877C193.786 45.6877 193.5 45.6877 193.251 45.6877C193.002 45.6877 192.818 45.6877 192.701 45.6877C192.4 45.6877 192.114 45.6951 191.843 45.7097C191.572 45.7171 191.348 45.7281 191.172 45.7427V44.6647Z" fill="#0650A0"/>
<path d="M208.711 41.2217C208.806 41.3464 208.916 41.5114 209.041 41.7167C209.173 41.9221 209.301 42.1311 209.426 42.3437C209.551 42.5564 209.653 42.7507 209.734 42.9267L209.107 43.2127C209.019 43.0221 208.92 42.8277 208.81 42.6297C208.7 42.4244 208.586 42.2227 208.469 42.0247C208.352 41.8267 208.231 41.6434 208.106 41.4747L208.711 41.2217ZM210.152 40.6937C210.255 40.8184 210.368 40.9797 210.493 41.1777C210.618 41.3757 210.746 41.5811 210.878 41.7937C211.01 42.0064 211.12 42.2007 211.208 42.3767L210.581 42.6627C210.486 42.4647 210.379 42.2667 210.262 42.0687C210.145 41.8707 210.024 41.6764 209.899 41.4857C209.782 41.2951 209.661 41.1191 209.536 40.9577L210.152 40.6937ZM204.014 41.0567C204.175 41.1447 204.366 41.2621 204.586 41.4087C204.806 41.5481 205.033 41.6947 205.268 41.8487C205.503 41.9954 205.719 42.1384 205.917 42.2777C206.122 42.4097 206.284 42.5197 206.401 42.6077L205.884 43.3667C205.752 43.2641 205.583 43.1431 205.378 43.0037C205.18 42.8644 204.967 42.7214 204.74 42.5747C204.52 42.4207 204.3 42.2777 204.08 42.1457C203.867 42.0064 203.68 41.8891 203.519 41.7937L204.014 41.0567ZM202.364 48.9217C202.767 48.8484 203.182 48.7531 203.607 48.6357C204.032 48.5184 204.454 48.3754 204.872 48.2067C205.29 48.0381 205.682 47.8511 206.049 47.6457C206.658 47.2937 207.222 46.9051 207.743 46.4797C208.264 46.0471 208.733 45.5887 209.151 45.1047C209.569 44.6207 209.925 44.1221 210.218 43.6087L210.746 44.5217C210.269 45.2551 209.664 45.9664 208.931 46.6557C208.198 47.3377 207.391 47.9354 206.511 48.4487C206.144 48.6614 205.741 48.8594 205.301 49.0427C204.868 49.2187 204.439 49.3727 204.014 49.5047C203.596 49.6441 203.215 49.7467 202.87 49.8127L202.364 48.9217ZM202.353 43.5317C202.514 43.6197 202.709 43.7297 202.936 43.8617C203.163 43.9937 203.394 44.1331 203.629 44.2797C203.864 44.4264 204.08 44.5657 204.278 44.6977C204.483 44.8224 204.645 44.9287 204.762 45.0167L204.267 45.7867C204.128 45.6841 203.955 45.5667 203.75 45.4347C203.552 45.3027 203.339 45.1634 203.112 45.0167C202.885 44.8701 202.661 44.7344 202.441 44.6097C202.221 44.4777 202.027 44.3677 201.858 44.2797L202.353 43.5317Z" fill="#0650A0"/>
<path d="M201.171 10.0645V17.9277H200.177V11.3052L198.173 12.0356V11.1387L201.015 10.0645H201.171Z" fill="white"/>
<path d="M209.216 17.1113V17.9277H204.098V17.2134L206.66 14.3613C206.975 14.0104 207.218 13.7132 207.39 13.4697C207.566 13.2227 207.687 13.0024 207.755 12.8091C207.827 12.6121 207.863 12.4116 207.863 12.2075C207.863 11.9497 207.809 11.717 207.702 11.5093C207.598 11.298 207.444 11.1297 207.24 11.0044C207.036 10.8791 206.789 10.8164 206.499 10.8164C206.151 10.8164 205.861 10.8844 205.629 11.0205C205.399 11.153 205.227 11.3392 205.113 11.5791C204.998 11.819 204.941 12.0947 204.941 12.4062H203.947C203.947 11.9658 204.044 11.563 204.237 11.1978C204.431 10.8325 204.717 10.5425 205.097 10.3276C205.476 10.1092 205.944 10 206.499 10C206.993 10 207.415 10.0877 207.766 10.2632C208.117 10.4351 208.386 10.6785 208.572 10.9937C208.762 11.3052 208.857 11.6704 208.857 12.0894C208.857 12.3185 208.817 12.5513 208.738 12.7876C208.663 13.0203 208.558 13.2531 208.421 13.4858C208.289 13.7186 208.133 13.9478 207.954 14.1733C207.779 14.3989 207.591 14.6209 207.39 14.8394L205.296 17.1113H209.216Z" fill="white"/>
<path fill-rule="evenodd" clip-rule="evenodd" d="M299.604 15.6892C300.092 15.2016 300.753 14.9277 301.442 14.9277C302.132 14.9277 302.793 15.2016 303.281 15.6892C303.769 16.1768 304.042 16.8381 304.042 17.5277H302.842C302.842 17.1564 302.695 16.8003 302.432 16.5378C302.17 16.2752 301.814 16.1277 301.442 16.1277C301.071 16.1277 300.715 16.2752 300.453 16.5378C300.19 16.8003 300.042 17.1564 300.042 17.5277H298.842C298.842 16.8381 299.116 16.1768 299.604 15.6892ZM296.776 20.2608C298.013 19.0231 299.692 18.3277 301.442 18.3277C303.193 18.3277 304.872 19.0231 306.109 20.2608C307.347 21.4986 308.043 23.1773 308.043 24.9277H306.842C306.842 23.4956 306.274 22.1221 305.261 21.1094C304.248 20.0967 302.875 19.5277 301.442 19.5277C300.01 19.5277 298.637 20.0967 297.624 21.1094C296.611 22.1221 296.042 23.4956 296.042 24.9277H294.842C294.842 23.1773 295.538 21.4986 296.776 20.2608ZM296.042 26.5277V28.9277C296.042 29.4277 295.898 29.9129 295.633 30.3277H307.252C306.987 29.9129 306.842 29.4277 306.842 28.9277V26.5277H308.043V28.9277C308.043 29.299 308.19 29.6551 308.453 29.9177C308.715 30.1802 309.071 30.3277 309.443 30.3277V31.5277H293.442V30.3277C293.814 30.3277 294.17 30.1802 294.432 29.9177C294.695 29.6551 294.842 29.299 294.842 28.9277V26.5277H296.042ZM300.042 32.3277C300.042 33.1009 300.669 33.7277 301.442 33.7277C302.216 33.7277 302.842 33.1009 302.842 32.3277H304.042C304.042 33.7637 302.878 34.9277 301.442 34.9277C300.007 34.9277 298.842 33.7637 298.842 32.3277H300.042Z" fill="black"/>
<path d="M284.071 41.1387C284.056 41.2047 284.045 41.2817 284.038 41.3697C284.031 41.4504 284.023 41.5384 284.016 41.6337C284.009 41.7291 284.001 41.8171 283.994 41.8977C283.987 42.0664 283.976 42.2864 283.961 42.5577C283.954 42.8291 283.946 43.1297 283.939 43.4597C283.932 43.7824 283.924 44.1124 283.917 44.4497C283.91 44.7797 283.906 45.0877 283.906 45.3737C283.906 45.6597 283.906 45.9751 283.906 46.3197C283.913 46.6571 283.921 46.9944 283.928 47.3317C283.943 47.6617 283.95 47.9697 283.95 48.2557C283.957 48.5344 283.961 48.7581 283.961 48.9267C283.961 49.2641 283.921 49.5317 283.84 49.7297C283.759 49.9277 283.646 50.0671 283.499 50.1477C283.36 50.2357 283.191 50.2797 282.993 50.2797C282.78 50.2797 282.542 50.2284 282.278 50.1257C282.014 50.0304 281.761 49.8984 281.519 49.7297C281.284 49.5611 281.09 49.3667 280.936 49.1467C280.782 48.9267 280.705 48.6957 280.705 48.4537C280.705 48.1237 280.83 47.8011 281.079 47.4857C281.336 47.1704 281.666 46.8771 282.069 46.6057C282.48 46.3344 282.912 46.1144 283.367 45.9457C283.866 45.7477 284.375 45.6011 284.896 45.5057C285.417 45.4031 285.893 45.3517 286.326 45.3517C286.861 45.3517 287.334 45.4434 287.745 45.6267C288.163 45.8101 288.489 46.0667 288.724 46.3967C288.966 46.7194 289.087 47.1007 289.087 47.5407C289.087 47.9807 288.995 48.3694 288.812 48.7067C288.636 49.0441 288.372 49.3264 288.02 49.5537C287.675 49.7811 287.25 49.9571 286.744 50.0817C286.502 50.1331 286.26 50.1661 286.018 50.1807C285.783 50.2027 285.571 50.2211 285.38 50.2357L285.072 49.3447C285.277 49.3521 285.49 49.3521 285.71 49.3447C285.937 49.3374 286.154 49.3117 286.359 49.2677C286.682 49.2091 286.982 49.1101 287.261 48.9707C287.547 48.8241 287.774 48.6334 287.943 48.3987C288.119 48.1641 288.207 47.8817 288.207 47.5517C288.207 47.2364 288.123 46.9724 287.954 46.7597C287.785 46.5471 287.558 46.3857 287.272 46.2757C286.986 46.1657 286.667 46.1107 286.315 46.1107C285.831 46.1107 285.358 46.1621 284.896 46.2647C284.434 46.3674 283.965 46.5141 283.488 46.7047C283.136 46.8367 282.813 47.0017 282.52 47.1997C282.227 47.3904 281.992 47.5921 281.816 47.8047C281.647 48.0174 281.563 48.2191 281.563 48.4097C281.563 48.5344 281.603 48.6554 281.684 48.7727C281.772 48.8827 281.878 48.9817 282.003 49.0697C282.128 49.1577 282.26 49.2274 282.399 49.2787C282.538 49.3227 282.659 49.3447 282.762 49.3447C282.887 49.3447 282.982 49.3007 283.048 49.2127C283.121 49.1247 283.158 48.9891 283.158 48.8057C283.158 48.5931 283.154 48.2997 283.147 47.9257C283.14 47.5444 283.132 47.1337 283.125 46.6937C283.118 46.2464 283.114 45.8211 283.114 45.4177C283.114 45.1024 283.114 44.7651 283.114 44.4057C283.121 44.0464 283.125 43.6981 283.125 43.3607C283.132 43.0234 283.136 42.7264 283.136 42.4697C283.143 42.2131 283.147 42.0297 283.147 41.9197C283.147 41.8464 283.143 41.7621 283.136 41.6667C283.136 41.5641 283.132 41.4651 283.125 41.3697C283.118 41.2744 283.107 41.1974 283.092 41.1387H284.071ZM287.481 42.3597C287.745 42.4991 288.038 42.6677 288.361 42.8657C288.684 43.0564 288.992 43.2507 289.285 43.4487C289.586 43.6467 289.824 43.8191 290 43.9657L289.549 44.6697C289.417 44.5377 289.248 44.3984 289.043 44.2517C288.838 44.0977 288.618 43.9474 288.383 43.8007C288.148 43.6467 287.917 43.5037 287.69 43.3717C287.463 43.2324 287.261 43.1151 287.085 43.0197L287.481 42.3597ZM280.881 43.1187C281.182 43.1554 281.438 43.1811 281.651 43.1957C281.871 43.2031 282.084 43.2067 282.289 43.2067C282.56 43.2067 282.865 43.1921 283.202 43.1627C283.539 43.1334 283.888 43.0967 284.247 43.0527C284.606 43.0014 284.955 42.9427 285.292 42.8767C285.637 42.8034 285.945 42.7264 286.216 42.6457L286.238 43.5037C285.952 43.5697 285.633 43.6357 285.281 43.7017C284.929 43.7604 284.57 43.8117 284.203 43.8557C283.844 43.8997 283.499 43.9364 283.169 43.9657C282.839 43.9951 282.553 44.0097 282.311 44.0097C281.996 44.0097 281.728 44.0061 281.508 43.9987C281.295 43.9914 281.094 43.9767 280.903 43.9547L280.881 43.1187Z" fill="black"/>
<path d="M296.919 48.8387H300.175V49.6197H296.919V48.8387ZM296.567 41.6447H300.538V50.3677H299.702V42.4257H297.37V50.4887H296.567V41.6447ZM293.322 42.5467H294.147V44.7467C294.147 45.2161 294.114 45.7184 294.048 46.2537C293.989 46.7817 293.865 47.3171 293.674 47.8597C293.491 48.3951 293.223 48.9157 292.871 49.4217C292.526 49.9204 292.068 50.3714 291.496 50.7747C291.467 50.7234 291.415 50.6574 291.342 50.5767C291.269 50.4961 291.195 50.4154 291.122 50.3347C291.049 50.2541 290.983 50.1954 290.924 50.1587C291.459 49.7774 291.885 49.3631 292.2 48.9157C292.523 48.4684 292.761 48.0064 292.915 47.5297C293.076 47.0457 293.183 46.5654 293.234 46.0887C293.293 45.6121 293.322 45.1611 293.322 44.7357V42.5467ZM292.189 42.1617H295.896V42.9317H292.189V42.1617ZM291.045 45.1317H296.215V45.9237H291.045V45.1317ZM293.883 46.5727C293.971 46.6534 294.092 46.7781 294.246 46.9467C294.407 47.1081 294.583 47.2951 294.774 47.5077C294.965 47.7131 295.155 47.9221 295.346 48.1347C295.537 48.3401 295.705 48.5271 295.852 48.6957C295.999 48.8644 296.109 48.9891 296.182 49.0697L295.621 49.7737C295.526 49.6344 295.405 49.4731 295.258 49.2897C295.111 49.0991 294.95 48.8974 294.774 48.6847C294.598 48.4647 294.422 48.2521 294.246 48.0467C294.07 47.8341 293.905 47.6434 293.751 47.4747C293.604 47.2987 293.48 47.1557 293.377 47.0457L293.883 46.5727ZM292.277 40.6767L293.08 40.8417C292.977 41.3331 292.849 41.8134 292.695 42.2827C292.548 42.7447 292.38 43.1811 292.189 43.5917C292.006 43.9951 291.804 44.3544 291.584 44.6697C291.54 44.6184 291.478 44.5634 291.397 44.5047C291.316 44.4461 291.228 44.3874 291.133 44.3287C291.045 44.2701 290.972 44.2224 290.913 44.1857C291.236 43.7604 291.511 43.2397 291.738 42.6237C291.973 42.0004 292.152 41.3514 292.277 40.6767Z" fill="black"/>
<path d="M305.235 41.3037C305.47 41.3771 305.774 41.4577 306.148 41.5457C306.529 41.6337 306.929 41.7217 307.347 41.8097C307.772 41.8904 308.176 41.9637 308.557 42.0297C308.938 42.0884 309.25 42.1287 309.492 42.1507L309.283 42.9977C309.078 42.9684 308.825 42.9281 308.524 42.8767C308.231 42.8254 307.915 42.7667 307.578 42.7007C307.241 42.6347 306.907 42.5687 306.577 42.5027C306.247 42.4294 305.946 42.3634 305.675 42.3047C305.404 42.2387 305.184 42.1837 305.015 42.1397L305.235 41.3037ZM304.993 43.3057C304.956 43.4964 304.916 43.7311 304.872 44.0097C304.835 44.2811 304.795 44.5671 304.751 44.8677C304.707 45.1684 304.667 45.4544 304.63 45.7257C304.593 45.9971 304.56 46.2207 304.531 46.3967C305.066 45.9347 305.631 45.5974 306.225 45.3847C306.826 45.1647 307.457 45.0547 308.117 45.0547C308.682 45.0547 309.173 45.1574 309.591 45.3627C310.009 45.5607 310.335 45.8357 310.57 46.1877C310.805 46.5324 310.922 46.9211 310.922 47.3537C310.922 47.8451 310.808 48.2924 310.581 48.6957C310.361 49.0917 310.013 49.4254 309.536 49.6967C309.067 49.9681 308.465 50.1587 307.732 50.2687C306.999 50.3861 306.119 50.4007 305.092 50.3127L304.828 49.4107C305.994 49.5501 306.958 49.5464 307.721 49.3997C308.484 49.2457 309.052 48.9891 309.426 48.6297C309.807 48.2631 309.998 47.8304 309.998 47.3317C309.998 47.0384 309.914 46.7781 309.745 46.5507C309.576 46.3234 309.345 46.1474 309.052 46.0227C308.766 45.8907 308.436 45.8247 308.062 45.8247C307.343 45.8247 306.691 45.9567 306.104 46.2207C305.525 46.4774 305.041 46.8367 304.652 47.2987C304.571 47.3941 304.505 47.4894 304.454 47.5847C304.403 47.6727 304.359 47.7607 304.322 47.8487L303.508 47.6507C303.552 47.4454 303.596 47.1997 303.64 46.9137C303.684 46.6204 303.728 46.3087 303.772 45.9787C303.816 45.6414 303.856 45.3041 303.893 44.9667C303.937 44.6294 303.974 44.3067 304.003 43.9987C304.032 43.6834 304.054 43.4121 304.069 43.1847L304.993 43.3057Z" fill="black"/>
<path d="M320.475 41.4467C320.468 41.5054 320.46 41.5824 320.453 41.6777C320.446 41.7731 320.438 41.8721 320.431 41.9747C320.431 42.0701 320.427 42.1581 320.42 42.2387C320.42 42.4661 320.416 42.7007 320.409 42.9427C320.409 43.1847 320.405 43.4194 320.398 43.6467C320.398 43.8667 320.394 44.0721 320.387 44.2627C320.38 44.5414 320.369 44.8494 320.354 45.1867C320.347 45.5167 320.332 45.8321 320.31 46.1327C320.295 46.4334 320.266 46.6791 320.222 46.8697C320.171 47.1117 320.079 47.2767 319.947 47.3647C319.822 47.4527 319.632 47.4967 319.375 47.4967C319.243 47.4967 319.082 47.4894 318.891 47.4747C318.7 47.4527 318.517 47.4307 318.341 47.4087C318.165 47.3867 318.026 47.3647 317.923 47.3427L317.945 46.5837C318.136 46.6277 318.334 46.6644 318.539 46.6937C318.752 46.7157 318.92 46.7267 319.045 46.7267C319.184 46.7267 319.283 46.7084 319.342 46.6717C319.408 46.6351 319.448 46.5544 319.463 46.4297C319.492 46.2831 319.514 46.0924 319.529 45.8577C319.544 45.6157 319.555 45.3554 319.562 45.0767C319.577 44.7907 319.588 44.5194 319.595 44.2627C319.595 44.0574 319.595 43.8411 319.595 43.6137C319.595 43.3791 319.595 43.1481 319.595 42.9207C319.595 42.6861 319.595 42.4697 319.595 42.2717C319.595 42.1911 319.591 42.0994 319.584 41.9967C319.584 41.8941 319.58 41.7951 319.573 41.6997C319.566 41.5971 319.555 41.5127 319.54 41.4467H320.475ZM316.119 41.7877C316.104 41.9197 316.093 42.0591 316.086 42.2057C316.079 42.3524 316.075 42.5101 316.075 42.6787C316.075 42.9134 316.071 43.2141 316.064 43.5807C316.064 43.9401 316.06 44.3251 316.053 44.7357C316.053 45.1391 316.053 45.5351 316.053 45.9237C316.053 46.3124 316.053 46.6607 316.053 46.9687C316.053 47.2767 316.057 47.5077 316.064 47.6617C316.079 47.9551 316.097 48.2044 316.119 48.4097C316.148 48.6151 316.222 48.7801 316.339 48.9047C316.456 49.0294 316.647 49.1211 316.911 49.1797C317.175 49.2384 317.545 49.2677 318.022 49.2677C318.418 49.2677 318.821 49.2567 319.232 49.2347C319.643 49.2054 320.028 49.1724 320.387 49.1357C320.754 49.0917 321.054 49.0477 321.289 49.0037L321.256 49.9387C321.014 49.9607 320.713 49.9864 320.354 50.0157C319.995 50.0451 319.617 50.0671 319.221 50.0817C318.825 50.1037 318.44 50.1147 318.066 50.1147C317.428 50.1147 316.922 50.0744 316.548 49.9937C316.174 49.9131 315.895 49.7847 315.712 49.6087C315.529 49.4254 315.404 49.1834 315.338 48.8827C315.279 48.5821 315.243 48.2154 315.228 47.7827C315.228 47.6287 315.224 47.4124 315.217 47.1337C315.217 46.8477 315.217 46.5287 315.217 46.1767C315.217 45.8174 315.217 45.4544 315.217 45.0877C315.217 44.7211 315.217 44.3727 315.217 44.0427C315.224 43.7127 315.228 43.4304 315.228 43.1957C315.228 42.9611 315.228 42.8034 315.228 42.7227C315.228 42.5541 315.221 42.4001 315.206 42.2607C315.199 42.1141 315.184 41.9564 315.162 41.7877H316.119ZM312.83 44.4277C313.006 44.4277 313.189 44.4204 313.38 44.4057C313.578 44.3911 313.776 44.3764 313.974 44.3617C314.216 44.3397 314.561 44.3067 315.008 44.2627C315.455 44.2187 315.961 44.1711 316.526 44.1197C317.098 44.0684 317.688 44.0171 318.297 43.9657C318.906 43.9071 319.496 43.8557 320.068 43.8117C320.647 43.7604 321.164 43.7237 321.619 43.7017C321.758 43.6871 321.901 43.6761 322.048 43.6687C322.202 43.6614 322.345 43.6541 322.477 43.6467V44.5047C322.418 44.4974 322.338 44.4974 322.235 44.5047C322.14 44.5047 322.033 44.5047 321.916 44.5047C321.806 44.5047 321.703 44.5047 321.608 44.5047C321.315 44.5121 320.959 44.5304 320.541 44.5597C320.123 44.5817 319.668 44.6147 319.177 44.6587C318.693 44.6954 318.198 44.7394 317.692 44.7907C317.186 44.8347 316.698 44.8824 316.229 44.9337C315.76 44.9851 315.334 45.0327 314.953 45.0767C314.579 45.1134 314.275 45.1464 314.04 45.1757C313.93 45.1904 313.805 45.2087 313.666 45.2307C313.534 45.2454 313.402 45.2637 313.27 45.2857C313.138 45.3004 313.024 45.3151 312.929 45.3297L312.83 44.4277Z" fill="black"/>
<path d="M309.943 14.4277C309.943 12.2186 311.733 10.4277 313.943 10.4277C316.152 10.4277 317.943 12.2186 317.943 14.4277C317.943 16.6369 316.152 18.4277 313.943 18.4277C311.733 18.4277 309.943 16.6369 309.943 14.4277Z" fill="#CE0037"/>
</svg>
