<svg width="375" height="48" viewBox="0 0 375 48" fill="none" xmlns="http://www.w3.org/2000/svg">
<g clip-path="url(#clip0_2010_125)">
<rect width="375" height="48" fill="white"/>
<path fill-rule="evenodd" clip-rule="evenodd" d="M33 18.6H15V17.4H33V18.6ZM33 24.6H15V23.4H33V24.6ZM33 30.6H15V29.4H33V30.6Z" fill="black"/>
<path fill-rule="evenodd" clip-rule="evenodd" d="M207.8 15.2616V14.0572C208.183 14.088 208.565 14.141 208.946 14.2167C211.43 14.7108 213.633 16.1312 215.108 18.1898C216.583 20.2484 217.22 22.7911 216.889 25.302C216.559 27.813 215.286 30.1041 213.328 31.7108C211.747 33.0081 209.816 33.7807 207.8 33.9429V32.7385C209.538 32.5793 211.201 31.9038 212.567 30.7832C214.289 29.3698 215.409 27.3543 215.7 25.1454C215.99 22.9365 215.43 20.6997 214.132 18.8888C212.835 17.0778 210.897 15.8283 208.712 15.3936C208.409 15.3334 208.105 15.2895 207.8 15.2616ZM206.2 32.7385C204.062 32.5429 202.067 31.5695 200.595 29.9986C199.072 28.3725 198.225 26.228 198.225 24H197.025C197.025 26.5326 197.988 28.9704 199.719 30.8189C201.417 32.6314 203.728 33.7441 206.2 33.9429V32.7385ZM206.2 14.0571V15.2615C204.851 15.3851 203.536 15.8206 202.366 16.5483C201.202 17.2722 200.234 18.252 199.527 19.4001H202.25V20.6001H198.5C198.03 20.6001 197.65 20.2195 197.65 19.7501V16.0001H198.85V18.2485C199.613 17.1679 200.589 16.2401 201.732 15.5292C203.094 14.6824 204.628 14.1836 206.2 14.0571ZM206.4 23.8965V18.0001H207.6V23.7515L211.424 27.5758L210.576 28.4243L206.649 24.4975C206.489 24.3381 206.4 24.1219 206.4 23.8965Z" fill="black"/>
<path fill-rule="evenodd" clip-rule="evenodd" d="M253.547 15.2356C254.055 13.8986 255.946 13.8977 256.455 15.2341L258.291 20.0541L263.291 20.4142C264.693 20.5153 265.252 22.2771 264.165 23.1686L260.03 26.5598L262.182 31.5591C262.785 32.9589 261.224 34.3006 259.931 33.4944L255.012 30.4282L250.483 33.4688C249.234 34.3071 247.641 33.0612 248.153 31.6471L249.991 26.5769L245.843 23.1754C244.754 22.2825 245.317 20.5176 246.722 20.4207L251.709 20.0767L253.547 15.2356ZM254.814 30.3046L254.814 30.3049L254.814 30.3046ZM258.373 20.2685L258.373 20.2691L258.036 20.3977L258.373 20.2691C258.373 20.2689 258.373 20.2687 258.373 20.2685ZM255.334 15.6613C255.217 15.3558 254.785 15.3561 254.669 15.6617L252.749 20.7189C252.632 21.025 252.349 21.2355 252.022 21.258L246.805 21.6178C246.484 21.64 246.355 22.0434 246.604 22.2475L250.95 25.8111C251.225 26.0366 251.328 26.4112 251.206 26.7456L249.281 32.0561C249.164 32.3793 249.528 32.6641 249.814 32.4725L254.537 29.3016C254.537 29.3016 254.537 29.3016 254.537 29.3016C254.812 29.1175 255.168 29.1115 255.449 29.2862L260.566 32.476C260.861 32.6603 261.218 32.3536 261.08 32.0337L258.82 26.7847C258.672 26.4412 258.769 26.0414 259.059 25.8042L259.439 26.2682L259.059 25.8042L263.404 22.2407C263.653 22.0369 263.525 21.6342 263.204 21.6111L257.975 21.2344C257.65 21.211 257.368 21.0011 257.252 20.6963L255.334 15.6613Z" fill="black"/>
<path fill-rule="evenodd" clip-rule="evenodd" d="M301.162 14.7615C301.649 14.2739 302.31 14 303 14C303.69 14 304.351 14.2739 304.838 14.7615C305.326 15.2491 305.6 15.9104 305.6 16.6H304.4C304.4 16.2287 304.253 15.8726 303.99 15.61C303.727 15.3475 303.371 15.2 303 15.2C302.629 15.2 302.273 15.3475 302.01 15.61C301.747 15.8726 301.6 16.2287 301.6 16.6H300.4C300.4 15.9104 300.674 15.2491 301.162 14.7615ZM298.333 19.3331C299.571 18.0954 301.25 17.4 303 17.4C304.75 17.4 306.429 18.0954 307.667 19.3331C308.905 20.5708 309.6 22.2496 309.6 24H308.4C308.4 22.5678 307.831 21.1943 306.818 20.1816C305.806 19.1689 304.432 18.6 303 18.6C301.568 18.6 300.194 19.1689 299.182 20.1816C298.169 21.1943 297.6 22.5678 297.6 24H296.4C296.4 22.2496 297.095 20.5708 298.333 19.3331ZM297.6 25.6L297.6 28C297.6 28.5 297.456 28.9852 297.191 29.4H308.809C308.544 28.9852 308.4 28.5 308.4 28V25.6H309.6V28C309.6 28.3713 309.748 28.7274 310.01 28.99C310.273 29.2525 310.629 29.4 311 29.4V30.6H295V29.4C295.371 29.4 295.727 29.2525 295.99 28.99C296.253 28.7274 296.4 28.3713 296.4 28L296.4 25.6H297.6ZM301.6 31.4C301.6 32.1732 302.227 32.8 303 32.8C303.773 32.8 304.4 32.1732 304.4 31.4H305.6C305.6 32.8359 304.436 34 303 34C301.564 34 300.4 32.8359 300.4 31.4H301.6Z" fill="black"/>
<path fill-rule="evenodd" clip-rule="evenodd" d="M351.8 15.261V14.0566C356.935 14.4641 360.975 18.7603 360.975 24C360.975 29.2397 356.935 33.5359 351.8 33.9434V32.739C356.271 32.3349 359.775 28.5766 359.775 24C359.775 19.4234 356.271 15.6651 351.8 15.261ZM350.2 32.739C345.729 32.3349 342.225 28.5766 342.225 24C342.225 19.4234 345.729 15.6651 350.2 15.261V14.0566C345.065 14.4641 341.025 18.7602 341.025 24C341.025 29.2398 345.065 33.5359 350.2 33.9434V32.739ZM351 18.725C349.675 18.725 348.6 19.7995 348.6 21.125C348.6 22.4505 349.675 23.525 351 23.525C352.325 23.525 353.4 22.4505 353.4 21.125C353.4 19.7995 352.325 18.725 351 18.725ZM347.4 21.125C347.4 19.1368 349.012 17.525 351 17.525C352.988 17.525 354.6 19.1368 354.6 21.125C354.6 23.1132 352.988 24.725 351 24.725C349.012 24.725 347.4 23.1132 347.4 21.125ZM351 27.1C349.122 27.1 347.6 28.6222 347.6 30.5H346.4C346.4 27.9595 348.459 25.9 351 25.9C353.541 25.9 355.6 27.9595 355.6 30.5H354.4C354.4 28.6222 352.878 27.1 351 27.1Z" fill="black"/>
</g>
<defs>
<clipPath id="clip0_2010_125">
<rect width="375" height="48" fill="white"/>
</clipPath>
</defs>
</svg>
